HIERARCHY
ROOT Hips
{
  OFFSET 45.6401 95.456 7.85658
  CHANNELS 6 Xposition Yposition Zposition Zrotation Xrotation Yrotation
  JOINT spine
  {
    OFFSET 0 7.96568 0.458067
    CHANNELS 3 Zrotation Xrotation Yrotation
    JOINT spine1
    {
      OFFSET 0 10.2431 0
      CHANNELS 3 Zrotation Xrotation Yrotation
      JOINT spine2
      {
        OFFSET 0 9.81475 0
        CHANNELS 3 Zrotation Xrotation Yrotation
        JOINT Neck
        {
          OFFSET 0 25.1986 1.20138
          CHANNELS 3 Zrotation Xrotation Yrotation
          JOINT Head
          {
            OFFSET 0 7.61315 0
            CHANNELS 3 Zrotation Xrotation Yrotation
            End Site
            {
              OFFSET 0 18.4281 -6.07733
            }
          }
        }
        JOINT RightShoulder
        {
          OFFSET -4.1327 10.5992 -0.575451
          CHANNELS 3 Zrotation Xrotation Yrotation
          JOINT RightArm
          {
            OFFSET 0 13.9018 0
            CHANNELS 3 Zrotation Xrotation Yrotation
            JOINT RightArmRoll
            {
              OFFSET 0 7.01788 0
              CHANNELS 3 Zrotation Xrotation Yrotation
              JOINT RightForeArm
              {
                OFFSET 0 20.4406 0
                CHANNELS 3 Zrotation Xrotation Yrotation
                JOINT RightForeArmRoll
                {
                  OFFSET 0 7.87515 0
                  CHANNELS 3 Zrotation Xrotation Yrotation
                  JOINT RightHand
                  {
                    OFFSET 0 15.8037 0
                    CHANNELS 3 Zrotation Xrotation Yrotation
                    End Site
                    {
                      OFFSET 0 0 0
                    }
                  }
                }
              }
            }
          }
        }
        JOINT LeftShoulder
        {
          OFFSET 4.1327 10.5992 -0.575451
          CHANNELS 3 Zrotation Xrotation Yrotation
          JOINT LeftArm
          {
            OFFSET 0 13.9018 0
            CHANNELS 3 Zrotation Xrotation Yrotation
            JOINT LeftArmRoll
            {
              OFFSET 0 7.01788 0
              CHANNELS 3 Zrotation Xrotation Yrotation
              JOINT LeftForeArm
              {
                OFFSET 0 20.4406 0
                CHANNELS 3 Zrotation Xrotation Yrotation
                JOINT LeftForeArmRoll
                {
                  OFFSET 0 7.87515 0
                  CHANNELS 3 Zrotation Xrotation Yrotation
                  JOINT LeftHand
                  {
                    OFFSET 0 15.8037 0
                    CHANNELS 3 Zrotation Xrotation Yrotation
                    End Site
                    {
                      OFFSET 0 0 0
                    }
                  }
                }
              }
            }
          }
        }
      }
    }
  }
  JOINT RightUpLeg
  {
    OFFSET -7.06048 -1.2947 -1.08609
    CHANNELS 3 Zrotation Xrotation Yrotation
    JOINT RightUpLegRoll
    {
      OFFSET 0 18.5308 0
      CHANNELS 3 Zrotation Xrotation Yrotation
      JOINT RightLeg
      {
        OFFSET 0 -22.9476 0
        CHANNELS 3 Zrotation Xrotation Yrotation
        JOINT RightLegRoll
        {
          OFFSET 0 23.0226 0
          CHANNELS 3 Zrotation Xrotation Yrotation
          JOINT RightFoot
          {
            OFFSET 0 19.1625 0
            CHANNELS 3 Zrotation Xrotation Yrotation
            JOINT RightToeBase
            {
              OFFSET 0 16.0188 0
              CHANNELS 3 Zrotation Xrotation Yrotation
              End Site
              {
                OFFSET 0.00678979 7.75783 -0.894206
              }
            }
          }
        }
      }
    }
  }
  JOINT LeftUpLeg
  {
    OFFSET 7.06048 -1.2947 -1.08609
    CHANNELS 3 Zrotation Xrotation Yrotation
    JOINT LeftUpLegRoll
    {
      OFFSET 0 18.5309 0
      CHANNELS 3 Zrotation Xrotation Yrotation
      JOINT LeftLeg
      {
        OFFSET 0 22.9475 0
        CHANNELS 3 Zrotation Xrotation Yrotation
        JOINT LeftLegRoll
        {
          OFFSET 0 23.2355 0
          CHANNELS 3 Zrotation Xrotation Yrotation
          JOINT LeftFoot
          {
            OFFSET 0 18.9496 0
            CHANNELS 3 Zrotation Xrotation Yrotation
            JOINT LeftToeBase
            {
              OFFSET 0 16.0188 0
              CHANNELS 3 Zrotation Xrotation Yrotation
              End Site
              {
                OFFSET -0.0304289 7.75782 -0.894206
              }
            }
          }
        }
      }
    }
  }
}
MOTION
Frames: 9
Frame Time: 0.00208333
38.8545 96.64 9.66224 0.85202 -3.22695 -4.95538 -0.124339 -0.485767 -0.492699 -0.241516 3.03238 -0.970528 -0.230149 4.67735 -0.967356 3.24273 9.7546 6.85551 -10.4532 12.9961 7.94006 66.7528 -3.96152 -3.04294 108.781 23.7153 -33.571 -1.24616e-005 -5.49767e-006 -8.10241e-007 27.1772 59.7881 -19.1096 2.93983e-007 -1.16464e-005 -3.0073 8.02885 -4.95153 0.697705 -61.267 -4.7874 3.12857 -108.275 16.8199 33.3021 -7.95139e-015 4.77083e-015 3.18055e-015 -29.9002 71.4549 27.3171 6.74903e-006 -9.19692e-008 3.00001 -8.02912 -4.951 -0.697518 177.467 2.14771 2.75537 180 7.01531e-015 178.856 177.674 8.3932 179.703 -7.86722e-007 7.59533e-007 0.139494 -19.7865 69.0602 20.4805 8.13337 25.2329 -3.48641 -174.218 -4.21276 1.73055 4.54188e-006 -4.6773e-006 -1.33036 3.63282 -6.41028 0.490392 -2.79751e-006 -2.08958e-006 0.0802937 17.9427 66.7476 -18.5245 -8.17392 25.8347 2.73374 
38.83 96.6361 9.65601 0.860501 -3.23337 -4.93819 -0.120513 -0.475447 -0.488755 -0.23433 3.05298 -0.963066 -0.223045 4.69795 -0.960011 3.35796 9.76502 6.95884 -10.6771 12.8589 8.06063 66.7584 -3.98914 -3.05793 108.712 23.6735 -33.602 -1.24616e-005 -5.49767e-006 -8.10241e-007 27.2 59.7739 -19.1114 2.93983e-007 -1.16464e-005 -3.0073 8.02885 -4.95153 0.697705 -61.2859 -4.7395 3.10171 -108.299 16.8734 33.4675 4.77083e-015 1.59028e-015 6.36111e-015 -30.0191 71.542 27.4586 6.74903e-006 -9.19693e-008 3.00001 -8.02912 -4.951 -0.697518 177.477 2.13199 2.74604 180 7.01531e-015 178.856 177.682 8.36611 179.701 -7.86722e-007 7.59533e-007 0.138882 -19.7591 69.0308 20.4522 8.13337 25.2329 -3.48641 -174.166 -4.21598 1.62994 4.54188e-006 -4.6773e-006 -1.3305 3.53684 -6.3905 0.480904 -2.79751e-006 -2.08958e-006 0.0782033 17.9455 66.7512 -18.5273 -8.17082 25.7801 2.8024 
38.8105 96.6436 9.6624 0.86851 -3.23947 -4.92322 -0.116561 -0.46528 -0.484937 -0.226947 3.07328 -0.955868 -0.215741 4.71825 -0.952935 3.47331 9.7759 7.06275 -10.9023 12.7213 8.18195 66.7625 -4.01545 -3.07215 108.646 23.6334 -33.6377 -1.24616e-005 -5.49767e-006 -8.10241e-007 27.2242 59.7573 -19.1129 2.93983e-007 -1.16464e-005 -3.0073 8.02885 -4.95153 0.697705 -61.3066 -4.69421 3.07657 -108.323 16.9254 33.6344 1.27222e-014 -3.18055e-015 9.54166e-015 -30.141 71.6314 27.6039 6.74903e-006 -9.19692e-008 3.00001 -8.02912 -4.951 -0.697518 177.487 2.11584 2.73596 180 7.01531e-015 178.856 177.691 8.33653 179.699 -7.86722e-007 7.59533e-007 0.138226 -19.7307 69.0001 20.4228 8.13337 25.2329 -3.48641 -174.113 -4.22087 1.52912 4.54188e-006 -4.6773e-006 -1.33072 3.44079 -6.36782 0.471262 -2.79751e-006 -2.08958e-006 0.0762702 17.9474 66.7535 -18.5291 -8.16757 25.7255 2.87101 
38.8051 96.6587 9.66554 0.876187 -3.24533 -4.90978 -0.11252 -0.45522 -0.481207 -0.219428 3.09336 -0.948855 -0.208297 4.73834 -0.946046 3.58872 9.78708 7.16708 -11.1281 12.5835 8.30377 66.7655 -4.04082 -3.08583 108.583 23.5943 -33.6766 -1.24616e-005 -5.49767e-006 -8.10241e-007 27.2494 59.7391 -19.1143 2.93983e-007 -1.16464e-005 -3.0073 8.02885 -4.95153 0.697705 -61.3286 -4.65075 3.05264 -108.347 16.9764 33.8025 -1.43125e-014 1.74931e-014 -3.18055e-015 -30.2654 71.7223 27.7525 6.74903e-006 -9.19692e-008 3.00001 -8.02912 -4.951 -0.697518 177.498 2.09941 2.72537 180 7.01531e-015 178.856 177.7 8.30518 179.697 -7.86722e-007 7.59533e-007 0.13754 -19.7017 68.9686 20.3927 8.13337 25.2329 -3.48641 -174.061 -4.22694 1.42816 4.54188e-006 -4.6773e-006 -1.33099 3.34469 -6.34309 0.461513 -2.79751e-006 -2.08958e-006 0.0744472 17.9487 66.7548 -18.5301 -8.16418 25.6709 2.93956 
38.7791 96.6556 9.66183 0.883677 -3.25106 -4.89723 -0.108429 -0.445221 -0.477527 -0.211833 3.11332 -0.941948 -0.200776 4.7583 -0.939263 3.70415 9.79843 7.27164 -11.3541 12.4455 8.42585 66.7678 -4.06566 -3.09921 108.521 23.5559 -33.7174 -1.24616e-005 -5.49767e-006 -8.10241e-007 27.2752 59.72 -19.1156 2.93983e-007 -1.16464e-005 -3.0073 8.02885 -4.95153 0.697705 -61.3511 -4.60834 3.02941 -108.371 17.0265 33.9712 -4.77083e-015 4.77083e-015 -0 -30.392 71.8139 27.9035 6.74903e-006 -9.19692e-008 3.00001 -8.02912 -4.951 -0.697518 177.509 2.08281 2.71448 180 7.01531e-015 178.856 177.709 8.27283 179.695 -7.86722e-007 7.59533e-007 0.136837 -19.6723 68.9366 20.3622 8.13337 25.2329 -3.48641 -174.008 -4.23366 1.32712 4.54188e-006 -4.6773e-006 -1.33129 3.24858 -6.31721 0.451703 -2.79751e-006 -2.08958e-006 0.072687 17.9496 66.7556 -18.5308 -8.16064 25.6162 3.00804 
38.7583 96.6622 9.66006 0.891121 -3.25675 -4.8849 -0.104327 -0.435238 -0.47386 -0.204222 3.13325 -0.935067 -0.19324 4.77823 -0.932508 3.81955 9.80978 7.37626 -11.5797 12.3075 8.54792 66.77 -4.09038 -3.11251 108.459 23.5177 -33.7586 -1.24616e-005 -5.49767e-006 -8.10241e-007 27.3011 59.7007 -19.1169 2.93983e-007 -1.16464e-005 -3.0073 8.02885 -4.95153 0.697705 -61.3739 -4.56618 3.00635 -108.395 17.0761 34.1401 -4.77083e-015 3.18055e-015 -0 -30.5202 71.9057 28.0564 6.74903e-006 -9.19693e-008 3.00001 -8.02912 -4.951 -0.697518 177.52 2.06616 2.70352 180 7.01531e-015 178.856 177.718 8.24022 179.693 -7.86722e-007 7.59533e-007 0.136129 -19.6429 68.9044 20.3316 8.13337 25.2329 -3.48641 -173.956 -4.24055 1.22605 4.54188e-006 -4.6773e-006 -1.33159 3.15247 -6.29103 0.441879 -2.79751e-006 -2.08958e-006 0.0709426 17.9504 66.7563 -18.5314 -8.15697 25.5615 3.07647 
38.7398 96.6639 9.66161 0.898664 -3.26251 -4.87213 -0.100252 -0.425224 -0.470168 -0.196657 3.15324 -0.928133 -0.185749 4.79822 -0.925698 3.93487 9.821 7.48078 -11.8043 12.1696 8.66976 66.7725 -4.11535 -3.12597 108.397 23.4792 -33.7989 -1.24616e-005 -5.49767e-006 -8.10241e-007 27.3267 59.6819 -19.1182 2.93983e-007 -1.16464e-005 -3.0073 8.02885 -4.95153 0.697705 -61.3962 -4.5235 2.98295 -108.42 17.1254 34.3089 7.95139e-015 -6.36111e-015 -3.18055e-015 -30.6498 71.9969 28.2103 6.74903e-006 -9.19692e-008 3.00001 -8.02912 -4.951 -0.697518 177.531 2.0496 2.69271 180 7.01531e-015 178.856 177.727 8.20812 179.691 -7.86722e-007 7.59533e-007 0.13543 -19.6138 68.8725 20.3014 8.13337 25.2329 -3.48641 -173.903 -4.24708 1.12503 4.54188e-006 -4.6773e-006 -1.33189 3.05638 -6.26544 0.432087 -2.79751e-006 -2.08958e-006 0.0691668 17.9514 66.7573 -18.5321 -8.15315 25.5068 3.14484 
38.7305 96.671 9.66523 0.906448 -3.26844 -4.85825 -0.0962423 -0.415133 -0.466413 -0.189198 3.17338 -0.921067 -0.178366 4.81836 -0.918754 4.05007 9.83194 7.58501 -12.0274 12.0319 8.79109 66.7757 -4.14099 -3.13981 108.333 23.4399 -33.8369 -1.24616e-005 -5.49767e-006 -8.10241e-007 27.3517 59.6642 -19.1197 2.93983e-007 -1.16464e-005 -3.0073 8.02885 -4.95153 0.697705 -61.4176 -4.47951 2.9587 -108.446 17.1749 34.4771 4.77083e-015 1.59028e-015 9.54166e-015 -30.78 72.0867 28.3645 6.74903e-006 -9.19692e-008 3.00001 -8.02912 -4.951 -0.697518 177.541 2.03325 2.68226 180 7.01531e-015 178.856 177.736 8.17729 179.689 -7.86722e-007 7.59533e-007 0.134753 -19.5854 68.8412 20.2718 8.13337 25.2329 -3.48641 -173.851 -4.25276 1.0241 4.54188e-006 -4.6773e-006 -1.33214 2.96034 -6.24129 0.422373 -2.79752e-006 -2.08958e-006 0.0673123 17.9528 66.7589 -18.5334 -8.14918 25.4521 3.21314 
38.7108 96.6685 9.66662 0.914617 -3.27463 -4.84261 -0.0923361 -0.40492 -0.462557 -0.181906 3.19377 -0.913789 -0.171153 4.83875 -0.911595 4.16511 9.84244 7.6888 -12.2485 11.8946 8.91169 66.7802 -4.16768 -3.15427 108.266 23.3994 -33.8711 -1.24616e-005 -5.49767e-006 -8.10241e-007 27.3754 59.6483 -19.1213 2.93983e-007 -1.16464e-005 -3.0073 8.02885 -4.95153 0.697705 -61.4376 -4.43342 2.93308 -108.472 17.2248 34.6443 -3.18055e-015 9.54166e-015 -0 -30.9105 72.1746 28.5181 6.74903e-006 -9.19692e-008 3.00001 -8.02912 -4.951 -0.697518 177.551 2.01723 2.67241 180 7.01531e-015 178.856 177.744 8.14845 179.687 -7.86722e-007 7.59533e-007 0.13411 -19.5579 68.8108 20.2433 8.13337 25.2329 -3.48641 -173.798 -4.25707 0.923338 4.54188e-006 -4.6773e-006 -1.33234 2.86436 -6.21948 0.412783 -2.79751e-006 -2.08958e-006 0.065332 17.955 66.7616 -18.5355 -8.14507 25.3973 3.28139 
